<?xml version="1.0" standalone="no"?>
<!DOCTYPE svg PUBLIC "-//W3C//DTD SVG 20010904//EN"
 "http://www.w3.org/TR/2001/REC-SVG-20010904/DTD/svg10.dtd">
<svg version="1.0" xmlns="http://www.w3.org/2000/svg"
 width="334.000000pt" height="334.000000pt" viewBox="0 0 334.000000 334.000000"
 preserveAspectRatio="xMidYMid meet">
<metadata>
Created by potrace 1.11, written by Peter Selinger 2001-2013
</metadata>
<g transform="translate(0.000000,334.000000) scale(0.100000,-0.100000)"
fill="#000000" stroke="none">
<path d="M1768 3335 c-4 -4 -238 -17 -324 -19 -43 -1 -50 -4 -49 -20 1 -11 -2
-40 -6 -65 -4 -25 -10 -75 -13 -111 -4 -36 -9 -76 -11 -90 -2 -14 -7 -50 -10
-80 -6 -59 -9 -92 -21 -180 -9 -77 -12 -101 -13 -135 -2 -59 3 -57 -206 -81
-16 -1 -52 -6 -80 -9 -27 -3 -66 -8 -85 -10 -19 -2 -55 -7 -80 -11 -25 -3 -51
-7 -57 -7 -16 0 -20 -16 -28 -97 -6 -65 -9 -93 -21 -180 -3 -25 -7 -70 -9
-100 -2 -30 -6 -73 -9 -95 -3 -22 -8 -67 -12 -100 -4 -33 -8 -71 -10 -85 -1
-14 -5 -52 -8 -85 -3 -33 -8 -73 -11 -90 -5 -37 -19 -182 -19 -212 -1 -13 -3
-23 -6 -23 -3 0 -5 -15 -5 -32 1 -18 -2 -52 -5 -75 -6 -41 -6 -42 66 -111 40
-39 70 -73 66 -76 -3 -3 0 -6 7 -6 6 0 32 -20 57 -45 24 -25 46 -45 48 -45 2
0 21 17 42 37 20 21 41 37 46 35 4 -1 8 3 8 9 0 14 82 95 92 91 4 -1 7 3 6 10
-2 7 4 12 12 13 8 0 15 5 15 10 0 17 38 54 48 48 6 -3 7 -2 4 4 -7 10 43 59
56 55 4 -1 7 3 7 9 0 14 62 75 73 71 4 -1 7 3 7 9 0 14 82 95 92 91 4 -1 7 3
6 10 -2 7 4 12 12 13 8 0 15 5 15 10 0 17 38 54 48 48 6 -3 7 -2 4 4 -7 10 43
59 56 55 4 -1 7 4 7 11 0 16 36 47 45 39 4 -4 5 -2 4 3 -5 15 33 55 44 48 6
-3 7 -2 4 4 -7 10 43 59 56 55 4 -1 7 3 7 9 0 14 62 75 73 71 4 -1 7 3 7 9 0
14 82 95 92 92 4 -2 7 3 5 10 -1 6 4 11 10 10 7 -2 12 3 10 10 -1 6 4 11 10
10 7 -2 12 1 10 5 -3 10 78 92 92 92 6 0 10 3 9 8 -4 10 57 72 71 72 6 0 10 3
9 8 -4 12 45 62 55 55 6 -3 7 -2 4 4 -7 11 33 49 48 44 5 -1 7 0 3 4 -8 9 23
45 39 45 7 0 12 3 11 8 -4 12 45 62 55 55 6 -3 7 -2 4 4 -6 10 31 48 48 48 6
0 10 7 10 15 1 8 6 14 13 13 7 -2 11 1 9 5 -3 10 78 92 92 92 6 0 10 3 9 8 -4
11 35 52 44 46 5 -3 7 -2 6 3 -4 13 35 53 45 46 6 -3 7 -2 4 4 -7 10 43 59 56
55 4 -1 7 5 7 13 0 7 7 18 15 22 12 7 -10 34 -101 126 -64 64 -120 117 -125
117 -5 0 -31 -22 -58 -50 -27 -27 -55 -50 -62 -50 -7 0 -10 -3 -7 -6 8 -7 -88
-104 -102 -104 -6 0 -8 -4 -5 -10 3 -5 -1 -10 -9 -10 -9 0 -15 -4 -14 -9 3 -9
-102 -111 -114 -111 -5 0 -7 -3 -6 -7 4 -11 -39 -53 -46 -46 -3 4 -6 1 -6 -6
0 -14 -20 -35 -35 -38 -6 -1 -64 -4 -130 -8 -66 -3 -133 -9 -149 -11 l-28 -5
6 53 c3 29 8 64 10 78 7 38 17 102 21 135 4 33 16 109 22 140 2 11 4 27 4 35
1 8 5 36 10 62 5 26 11 69 14 95 8 69 10 77 18 90 9 15 -32 41 -45 28z m-418
-1366 c-131 -131 -241 -239 -243 -239 -3 0 -4 12 -2 28 6 40 15 139 20 197 1
28 6 86 10 130 4 44 8 85 8 91 0 6 5 11 11 11 6 0 76 4 156 7 79 4 145 8 146
9 2 1 32 3 68 4 l65 1 -239 -239z"/>
<path d="M2378 2238 c-29 -29 -56 -52 -60 -50 -4 1 -7 -1 -6 -5 4 -11 -57 -73
-71 -73 -6 0 -10 -4 -8 -8 3 -10 -105 -118 -115 -114 -4 1 -7 -4 -6 -10 2 -7
-3 -12 -10 -10 -8 1 -11 -1 -8 -6 3 -5 -68 -81 -158 -170 -89 -89 -160 -162
-158 -162 2 0 -14 -15 -36 -32 -23 -18 -41 -36 -41 -39 -1 -8 -95 -104 -98
-101 -2 1 -3 0 -4 -2 -1 -5 -305 -315 -581 -594 -98 -98 -180 -177 -183 -174
-3 3 -5 0 -5 -7 0 -15 -57 -71 -65 -63 -3 3 -5 0 -5 -7 0 -13 -80 -97 -80 -84
0 4 -7 -6 -16 -24 l-16 -31 112 -111 c61 -61 115 -111 119 -111 4 0 34 26 67
57 32 32 62 57 66 55 5 -1 8 2 8 6 0 15 36 52 50 52 7 0 11 3 7 6 -8 8 25 44
35 38 4 -3 8 0 8 7 0 15 117 129 125 121 3 -3 5 0 5 7 0 6 18 30 41 52 45 44
51 46 211 54 59 3 116 8 128 10 25 5 26 -16 4 -135 -8 -47 -17 -105 -20 -130
-3 -25 -8 -58 -10 -75 -3 -16 -7 -46 -10 -65 -3 -19 -12 -73 -20 -120 -8 -47
-15 -95 -15 -107 1 -12 -4 -34 -9 -48 -9 -24 -6 -28 20 -27 368 13 384 15 394
52 4 13 13 80 21 160 1 14 6 52 10 85 4 33 8 71 10 85 8 74 17 157 20 170 5
26 18 154 17 172 0 10 2 20 6 22 9 5 88 17 212 31 14 2 52 6 85 10 33 4 71 9
85 11 89 10 126 16 132 22 3 4 9 43 13 87 3 44 8 95 11 113 10 75 13 101 19
177 4 44 9 88 11 97 1 9 6 48 9 85 4 37 8 79 10 93 2 14 7 54 10 90 4 36 8 79
10 95 2 17 6 57 10 90 3 33 8 76 10 95 2 19 7 64 11 100 3 36 8 68 10 71 4 7
-251 269 -261 269 -2 0 -28 -24 -57 -52z m-122 -655 c-3 -16 -8 -62 -11 -103
-4 -41 -8 -91 -10 -110 -2 -19 -6 -73 -10 -120 -4 -47 -10 -88 -13 -92 -4 -4
-63 -9 -132 -12 -69 -3 -164 -9 -212 -12 -49 -3 -88 -3 -88 1 0 10 27 35 39
35 6 0 11 7 11 15 0 9 10 20 23 25 12 5 19 9 15 9 -4 1 5 14 20 29 15 15 30
26 35 24 4 -2 7 1 7 7 0 14 108 120 115 113 3 -3 5 0 5 7 0 14 76 91 90 91 6
0 10 7 10 15 0 9 10 20 23 25 12 5 19 9 16 9 -8 1 54 70 64 70 4 1 5 -11 3
-26z"/>
</g>
</svg>
